<svg fill="none" height="20" viewBox="0 0 115 20" width="115" xmlns="http://www.w3.org/2000/svg"><path d="m21.2906 8.84945v2.26595l-2.3012 1.5857c-.1751.1201-.2852.3251-.2852.5402v2.5661l-1.931 1.2406-1.3507-.8954 1.6409-.9454c.3102-.1801.4202-.5803.2401-.8954-.1751-.3151-.5703-.4252-.8854-.2451l-5.1978 2.9963-1.30564-.8154 1.61584-.9404c.3102-.1801.4152-.5802.2351-.8954-.1801-.3151-.5753-.4201-.8854-.2401l-2.54636 1.4857s-.00001 0-.00501 0l-4.38729 2.5611-.02001-5.1472c0-.2251-.11506-.4352-.30516-.5503l-2.33121-1.4706v-5.28728l2.2962-1.19051 4.62241 2.89124c.30516.19009.70536.09505.89046-.21509.1901-.30513.09505-.7103-.21011-.90039l-2.27619-1.42561v-2.30599l2.07609-1.20052 4.68248 2.95628c.3051.19008.7053.10004.8954-.2101.1901-.30513.0951-.7103-.2051-.90038l-1.5908-1.00544 1.4808-.85036 4.7574 2.7862v2.331l-2.3412 1.38059c-.3101.18008-.4152.58525-.2351.89539.1201.21009.3352.32514.5603.32514.1101 0 .2251-.03001.3252-.09004l2.3312-1.37559 1.941 1.18051z" fill="#fff"/><path d="m15.3472 11.5769-1.7409-1.1055c-.1951-.125-.3152-.3501-.3001-.58523l.115-2.61112-1.4557-.84536-.1001 2.08089c-.01.22009-.1301.42018-.3202.53523l-2.40122 1.41059c-.10005.06-.21511.0901-.32517.0901-.11005 0-.21511-.0251-.31516-.0801l-1.82595-1.01541-.08004 1.66571 1.98103 1.1955 2.49631-1.2955c.2001-.1051.4402-.0951.6303.02l2.2512 1.3806 1.3907-.8354z" fill="#5f6ce1"/><g fill="#282860"><path d="m22.2766 7.9148-1.956-1.18551c-.1951-.12005-.3152-.33014-.3152-.56024v-2.346c0-.23511-.125-.4502-.3251-.56525l-5.4029-3.1663602c-.2001-.1150495-.4452-.1200516-.6453 0l-2.0761 1.1905102c-.2051.12005-.4602.11505-.6603-.015l-1.84098-1.165506c-.2001-.1300556-.45524-.1350591-.66535-.0150074l-2.74142 1.5806834c-.20011.11505-.32517.33514-.32517.57024v.7003c0 .51022-.55529.82536-.99052.55524l-.37019-.2351c-.19511-.12005-.43523-.13005-.63533-.02501l-2.976559 1.54066c-.215112.11005-.350181.33515-.350181.58025v6.0526c0 .2251.11506.4352.305159.5552l2.031061 1.2806c.1901.12.30516.3251.30516.5502l.02501 5.5524c0 .2351.12507.4502.32517.5653.10005.06.21011.09.32517.09s.22512-.03.32517-.09l4.68244-2.7312c.20511-.1201.46024-.1151.66535.01l1.89601 1.1855c.105.065.2251.095.3402.095.11 0 .2201-.03.3201-.085l2.2862-1.3156c.2101-.12.4703-.115.6754.02l1.921 1.2756c.11.07.2301.105.3552.105.125 0 .2401-.035.3501-.1l2.5864-1.6607c.1851-.1201.3001-.3302.3001-.5503v-2.2359c0-.2151.1051-.4202.2852-.5402l2.016-1.3906c.1751-.1201.2852-.3252.2852-.5403v-2.98126c0-.2301-.1201-.44519-.3152-.56024zm-1.2656 3.3865-2.0161 1.3906c-.1751.12-.2851.3251-.2851.5402v2.2109c0 .2251-.1151.4302-.3002.5503l-1.2757.8203c-.2151.1401-.4902.1351-.7003-.005l-.1201-.08c-.4052-.2701-.3852-.8754.035-1.1155l.7254-.4202c.2201-.125.3602-.3751.3252-.6252-.0651-.5103-.5853-.7303-.9705-.5103l-4.8626 2.8063c-.2051.12-.4602.115-.6603-.0101l-.055-.035c-.4153-.2601-.4053-.8753.015-1.1204l.6803-.3952c.2201-.1251.3552-.3752.3202-.6253-.065-.5102-.5903-.7303-.9755-.5052l-2.54635 1.4856s0 0-.005 0l-3.42178 1.9959c-.43023.2501-.97051-.06-.97051-.5653l-.01501-4.0217c0-.2251-.11506-.4352-.30516-.5502l-2.02606-1.2756c-.1901-.12-.30516-.3301-.30516-.5552v-4.52695c0-.24511.13508-.4702.35019-.58025l1.62084-.84036c.20011-.10505.44524-.09504.63534.02501l4.31224 2.69616c.30516.19008.70537.09504.89047-.21509.1901-.30514.09505-.71031-.21011-.90039l-1.97103-1.23053c-.1901-.12005-.30516-.33014-.30516-.55524v-1.56067c0-.2351.12507-.45019.32517-.57024l1.41574-.81536c.20511-.12005.46024-.11505.66535.01501l4.35229 2.75118c.3802.2401.9055.03502.9905-.4702.04-.25011-.085-.50022-.3002-.63527l-.6753-.42519c-.4152-.26511-.4052-.88037.025-1.12548l.2101-.12005c.2001-.11505.4452-.11505.6453 0l4.1122 2.41104c.2001.11505.3252.33514.3252.56524v1.58068c0 .2351-.1201.45019-.3202.56524l-2.0211 1.19051c-.2201.13006-.3551.37516-.3201.63027.05.37516.3452.59026.6503.59026.1101 0 .2251-.03002.3252-.09004l2.001-1.18051c.2051-.12005.4553-.12005.6604 0l1.2956.79034c.1951.12005.3152.33014.3152.56024v1.54564c0 .2151-.105.4202-.2851.5403z"/><path d="m20.0218 9.58576c-.1801-.31514-.5753-.42018-.8855-.24011l-2.5313 1.47565-1.986-1.26055.1-2.27098 2.3613-1.42561c.3051-.18508.4052-.59025.2251-.90039-.1851-.31013-.5803-.41018-.8905-.2251l-2.3362 1.41061-5.20272-3.0263c-.31017-.18008-.70537-.07503-.88546.2401-.1801.31514-.07004.71531.24012.89539l2.47126 1.43562-.12 2.39603-1.78096 1.04544-5.26275-2.93126c-.31516-.17507-.70537-.06002-.88046.25511-.17009.31514-.06003.71531.25514.89039l2.4963 1.39059-.08004 1.65571-1.79594-.98042c-.31516-.17007-.71037-.05502-.88046.26512-.17009.31514-.05503.7153.26014.8854l2.6864 1.4706 1.69088 1.0205-2.03106 1.2555c-.30516.1901-.40021.5902-.21511.9004.12006.2001.33517.3151.55529.3151.11506 0 .23012-.03.33517-.095l2.93153-1.8058 2.47633-1.2856 2.2762 1.3956c.105.0651.2201.0951.3351.0951.1151 0 .2301-.03.3302-.0901l2.6314-1.5806 2.8715-1.6758c.3101-.18.4152-.5802.2351-.89534zm-6.0632 2.82124-2.2511-1.3806c-.1951-.1201-.4303-.1251-.6304-.02l-2.49628 1.2955-1.98103-1.1955.08004-1.66571 1.82595 1.01541c.09505.0551.20511.0801.31517.0801s.22512-.03.32517-.0901l2.40128-1.41058c.1901-.11005.3101-.31513.3201-.53523l.1001-2.08089 1.4558.84536-.1151 2.61112c-.01.23512.105.45522.3001.58522l1.741 1.1055-1.3908.8354z"/><path d="m26.464 3.46289h10.8557v2.52108h-3.9721v11.16983h-2.9366v-11.16983h-3.952v-2.52108z"/><path d="m48.4661 11.5755v5.5724h-2.7564v-5.3373c0-1.6407-.6654-2.56108-2.0361-2.56108s-2.2511 1.01548-2.2511 2.73618v5.1622h-2.7565v-13.69087h2.7565v4.87209c.6453-.78033 1.5458-1.35057 2.9715-1.35057 2.2312 0 4.0671 1.19551 4.0671 4.59695z"/><path d="m49.7812 12.1466c0-3.13135 2.0561-5.16222 5.1627-5.16222 3.1067 0 5.0477 1.8758 5.0877 4.83212 0 .2951-.02.6252-.08.9404h-7.2938v.135c.06 1.4256.9805 2.286 2.3662 2.286 1.1156 0 1.896-.4902 2.1311-1.4256h2.7214c-.3151 1.9558-2.0561 3.5215-4.7325 3.5215-3.3467 0-5.3577-2.0159-5.3577-5.1222zm7.4689-1.1955c-.1951-1.23055-1.0355-1.91584-2.2861-1.91584-1.2507 0-2.0911.72531-2.2512 1.91584z"/><path d="m67.6544 7.09875v2.50108h-1.0955c-1.6409 0-2.2712 1.09547-2.2712 2.62117v4.9271h-2.7565v-10.05435h2.5014l.2551 1.50565c.5453-.90039 1.3307-1.50565 2.8965-1.50565h.4702z"/><path d="m78.5354 14.8277v2.326h-1.4058c-1.4257 0-1.8759-.6852-1.8559-1.6407-.7054 1.1155-1.7209 1.7608-3.2867 1.7608-2.1712 0-3.737-1.0354-3.737-2.9513 0-2.1309 1.6058-3.3464 4.6174-3.3464h1.9961v-.4902c0-.90041-.6454-1.48566-1.801-1.48566-1.0755 0-1.8009.49021-1.916 1.23056h-2.6614c.1951-1.95587 1.9961-3.24642 4.6575-3.24642 2.8164 0 4.4423 1.25053 4.4423 3.65652v3.5616c0 .5302.2151.6252.6453.6252h.3152zm-3.6819-2.0158h-2.0161c-1.1556 0-1.8209.4702-1.8209 1.3105 0 .7053.5652 1.1555 1.4857 1.1555 1.4458 0 2.3262-.9003 2.3462-2.2709v-.1951z"/></g><path d="m78.9855 3.98805h2.8565l2.071 10.42445c.02.0801.0401.1001.0601.1001s.04-.02.06-.1001l1.896-8.33355c.3502-1.60569 1.1556-2.28598 2.3262-2.28598s1.956.68529 2.3262 2.27098l1.936 8.35355c.02.0801.02.1001.0601.1001.02 0 .02-.04.04-.1001l1.996-10.42444h2.8565l-2.3462 11.24484c-.2952 1.3906-1.1556 2.1909-2.4263 2.1909-1.1756 0-2.1111-.7453-2.4262-2.0709l-2.0161-8.64367-1.996 8.70377c-.2952 1.2705-1.2707 2.0158-2.4063 2.0158-1.2106 0-2.1511-.7453-2.4463-2.1309l-2.4262-11.30484z" fill="#5f6ce1"/><path d="m99.0371 4.30277c0-.9404.7804-1.72074 1.7209-1.72074.94 0 1.701.78034 1.701 1.72074 0 .94041-.761 1.72074-1.701 1.72074-.9405 0-1.7209-.76032-1.7209-1.72074zm3.1069 3.16636v9.67917h-2.7767v-9.67917z" fill="#5f6ce1"/><path d="m107.642 12.6527v4.4969h-2.777v-4.8321c0-2.8162 1.661-5.12219 5.048-5.12219s5.088 2.28598 5.088 5.12219v4.8321h-2.777v-4.4969c0-1.4857-.725-2.75623-2.306-2.75623s-2.271 1.27053-2.271 2.75623z" fill="#5f6ce1"/></svg>